<svg width="19" height="21" viewBox="0 0 19 21" fill="none" xmlns="http://www.w3.org/2000/svg">
<path d="M16.4279 5.69166H14.3828C14.3828 3.03555 12.1333 0.948608 9.27016 0.948608C6.40708 0.948608 4.15751 3.03555 4.15751 5.69166H2.11245C0.987661 5.69166 0.0673828 6.54541 0.0673828 7.58889V18.9722C0.0673828 20.0157 0.987661 20.8694 2.11245 20.8694H16.4279C17.5527 20.8694 18.4729 20.0157 18.4729 18.9722V7.58889C18.4729 6.54541 17.5527 5.69166 16.4279 5.69166ZM9.27016 2.84583C11.0085 2.84583 12.3378 4.07903 12.3378 5.69166H6.20257C6.20257 4.07903 7.53186 2.84583 9.27016 2.84583ZM16.4279 18.9722H2.11245V7.58889H16.4279V18.9722ZM9.27016 11.3833C7.53186 11.3833 6.20257 10.1501 6.20257 8.5375H4.15751C4.15751 11.1936 6.40708 13.2806 9.27016 13.2806C12.1333 13.2806 14.3828 11.1936 14.3828 8.5375H12.3378C12.3378 10.1501 11.0085 11.3833 9.27016 11.3833Z" fill="#737791"/>
</svg>
