<svg width="25" height="25" viewBox="0 0 25 25" fill="none" xmlns="http://www.w3.org/2000/svg">
<mask id="mask0_122_160" style="mask-type:luminance" maskUnits="userSpaceOnUse" x="0" y="0" width="25" height="25">
<rect x="0.741699" y="0.0427094" width="24" height="24" fill="white"/>
</mask>
<g mask="url(#mask0_122_160)">
<path d="M10.9931 5.92708L11.2715 10.067L11.4097 12.1478C11.4112 12.3618 11.4447 12.5744 11.5094 12.7787C11.6763 13.1753 12.0779 13.4273 12.5148 13.4097L19.172 12.9742C19.4603 12.9695 19.7387 13.0773 19.9459 13.274C20.1186 13.4379 20.2301 13.6523 20.2653 13.8829L20.2771 14.0229C20.0016 17.8376 17.1999 21.0194 13.3931 21.8407C9.58627 22.662 5.68258 20.927 3.80143 17.5776C3.25911 16.6045 2.92037 15.535 2.8051 14.4317C2.75695 14.1051 2.73575 13.7752 2.7417 13.4452C2.73575 9.35547 5.64819 5.8197 9.72505 4.96731C10.2157 4.8909 10.6968 5.15066 10.8935 5.59827C10.9444 5.70193 10.978 5.81295 10.9931 5.92708Z" fill="#737791"/>
<path opacity="0.4" d="M22.7413 9.85497L22.7343 9.88756L22.7141 9.93495L22.7169 10.0651C22.7065 10.2374 22.6399 10.4032 22.5253 10.5372C22.4058 10.6767 22.2426 10.7717 22.0629 10.8086L21.9533 10.8236L14.2725 11.3213C14.017 11.3465 13.7626 11.2641 13.5727 11.0947C13.4143 10.9534 13.3131 10.7628 13.2845 10.5574L12.769 2.88774C12.76 2.86181 12.76 2.8337 12.769 2.80776C12.776 2.59635 12.8691 2.39652 13.0274 2.25291C13.1856 2.1093 13.396 2.03388 13.6113 2.0435C18.1712 2.15951 22.0036 5.43847 22.7413 9.85497Z" fill="#737791"/>
</g>
</svg>
