<svg width="35" height="35" viewBox="0 0 35 35" fill="none" xmlns="http://www.w3.org/2000/svg">
<rect x="0.681641" y="0.323952" width="34.15" height="34.15" rx="8" fill="#FFFAF1"/>
<path d="M24.6386 22.0614C24.1812 21.6537 23.7808 21.1862 23.4481 20.6717C23.0849 19.9614 22.8672 19.1858 22.8077 18.3903V16.0472C22.8109 14.7977 22.3576 13.59 21.5332 12.6512C20.7087 11.7123 19.5697 11.1068 18.3303 10.9484V10.3366C18.3303 10.1686 18.2636 10.0076 18.1448 9.88882C18.0261 9.77007 17.865 9.70336 17.6971 9.70336C17.5292 9.70336 17.3681 9.77007 17.2494 9.88882C17.1306 10.0076 17.0639 10.1686 17.0639 10.3366V10.9579C15.8356 11.1277 14.7104 11.7368 13.8967 12.6726C13.0831 13.6083 12.6361 14.8072 12.6386 16.0472V18.3903C12.5792 19.1858 12.3615 19.9614 11.9983 20.6717C11.6715 21.185 11.2775 21.6524 10.8268 22.0614C10.7762 22.1058 10.7356 22.1606 10.7078 22.2219C10.68 22.2832 10.6656 22.3498 10.6655 22.4171V23.0622C10.6655 23.188 10.7155 23.3086 10.8044 23.3976C10.8934 23.4865 11.014 23.5365 11.1398 23.5365H24.3255C24.4513 23.5365 24.572 23.4865 24.6609 23.3976C24.7499 23.3086 24.7998 23.188 24.7998 23.0622V22.4171C24.7997 22.3498 24.7853 22.2832 24.7575 22.2219C24.7297 22.1606 24.6892 22.1058 24.6386 22.0614ZM11.6521 22.5879C12.0934 22.1616 12.4819 21.6838 12.8094 21.165C13.2669 20.3072 13.5339 19.3607 13.592 18.3903V16.0472C13.5732 15.4913 13.6664 14.9374 13.8662 14.4183C14.0659 13.8992 14.3681 13.4256 14.7546 13.0257C15.1412 12.6259 15.6043 12.3079 16.1163 12.0907C16.6284 11.8735 17.1789 11.7616 17.7351 11.7616C18.2912 11.7616 18.8417 11.8735 19.3538 12.0907C19.8658 12.3079 20.3289 12.6259 20.7155 13.0257C21.102 13.4256 21.4042 13.8992 21.6039 14.4183C21.8037 14.9374 21.8969 15.4913 21.8781 16.0472V18.3903C21.9362 19.3607 22.2032 20.3072 22.6607 21.165C22.9882 21.6838 23.3767 22.1616 23.818 22.5879H11.6521Z" fill="#FFA412"/>
<path d="M17.756 25.1206C18.0548 25.1137 18.3415 25.0014 18.5655 24.8035C18.7894 24.6056 18.9361 24.3348 18.9797 24.0392H16.4849C16.5297 24.3429 16.6833 24.62 16.9171 24.8189C17.1509 25.0178 17.449 25.125 17.756 25.1206Z" fill="#FFA412"/>
</svg>
