<svg width="21" height="20" viewBox="0 0 21 20" fill="none" xmlns="http://www.w3.org/2000/svg">
<path d="M10.4181 6.58888C11.5028 6.58888 12.5432 6.98865 13.3102 7.70025C14.0773 8.41185 14.5082 9.37698 14.5082 10.3833C14.5082 11.3897 14.0773 12.3548 13.3102 13.0664C12.5432 13.778 11.5028 14.1778 10.4181 14.1778C9.33331 14.1778 8.29297 13.778 7.52592 13.0664C6.75887 12.3548 6.32795 11.3897 6.32795 10.3833C6.32795 9.37698 6.75887 8.41185 7.52592 7.70025C8.29297 6.98865 9.33331 6.58888 10.4181 6.58888ZM10.4181 8.48611C9.87569 8.48611 9.35552 8.68599 8.972 9.04179C8.58847 9.39759 8.37301 9.88015 8.37301 10.3833C8.37301 10.8865 8.58847 11.3691 8.972 11.7249C9.35552 12.0807 9.87569 12.2806 10.4181 12.2806C10.9605 12.2806 11.4806 12.0807 11.8642 11.7249C12.2477 11.3691 12.4631 10.8865 12.4631 10.3833C12.4631 9.88015 12.2477 9.39759 11.8642 9.04179C11.4806 8.68599 10.9605 8.48611 10.4181 8.48611ZM8.37301 19.8694C8.11738 19.8694 7.90265 19.6987 7.86175 19.471L7.48341 16.9572C6.83922 16.7201 6.28705 16.3975 5.75533 16.0181L3.20923 16.9762C2.98427 17.0521 2.70819 16.9762 2.58549 16.7675L0.540425 13.4853C0.477842 13.3875 0.455779 13.272 0.478362 13.1603C0.500945 13.0485 0.566629 12.9482 0.663129 12.8782L2.82067 11.3035L2.74909 10.3833L2.82067 9.43472L0.663129 7.88848C0.566629 7.81841 0.500945 7.71813 0.478362 7.60639C0.455779 7.49465 0.477842 7.37911 0.540425 7.28137L2.58549 3.99918C2.70819 3.79048 2.98427 3.70511 3.20923 3.79048L5.75533 4.73909C6.28705 4.36913 6.83922 4.04661 7.48341 3.80945L7.86175 1.29563C7.90265 1.06797 8.11738 0.897217 8.37301 0.897217H12.4631C12.7188 0.897217 12.9335 1.06797 12.9744 1.29563L13.3527 3.80945C13.9969 4.04661 14.5491 4.36913 15.0808 4.73909L17.6269 3.79048C17.8519 3.70511 18.128 3.79048 18.2507 3.99918L20.2957 7.28137C20.4287 7.49006 20.3673 7.74619 20.173 7.88848L18.0155 9.43472L18.0871 10.3833L18.0155 11.3319L20.173 12.8782C20.3673 13.0205 20.4287 13.2766 20.2957 13.4853L18.2507 16.7675C18.128 16.9762 17.8519 17.0616 17.6269 16.9762L15.0808 16.0276C14.5491 16.3975 13.9969 16.7201 13.3527 16.9572L12.9744 19.471C12.9335 19.6987 12.7188 19.8694 12.4631 19.8694H8.37301ZM9.65118 2.79444L9.27284 5.27031C8.0458 5.50747 6.96192 6.11458 6.17457 6.95884L3.71027 5.97229L2.94337 7.20548L5.10091 8.67583C4.6919 9.78254 4.6919 10.9841 5.10091 12.0908L2.93315 13.5707L3.70005 14.8039L6.1848 13.8173C6.97215 14.6521 8.0458 15.2592 9.26261 15.4869L9.64095 17.9722H11.1952L11.5735 15.4963C12.7903 15.2592 13.864 14.6521 14.6514 13.8173L17.1361 14.8039L17.903 13.5707L15.7352 12.1003C16.1442 10.9904 16.1442 9.7857 15.7352 8.67583L17.8928 7.20548L17.1259 5.97229L14.6616 6.95884C13.8581 6.09591 12.7682 5.50526 11.5633 5.2798L11.185 2.79444H9.65118Z" fill="#737791"/>
</svg>
