<svg width="25" height="23" viewBox="0 0 25 23" fill="none" xmlns="http://www.w3.org/2000/svg">
<path fill-rule="evenodd" clip-rule="evenodd" d="M16.8466 15.7951L20.3454 12.0078C20.5125 11.831 20.598 11.6077 20.5981 11.3833C20.5982 11.2298 20.5584 11.0757 20.4773 10.9355C20.4413 10.8731 20.3973 10.8138 20.3454 10.7589L16.8466 6.97153C16.4791 6.57373 15.8336 6.52763 15.4048 6.86856C14.976 7.20949 14.9263 7.80835 15.2938 8.20614L17.3525 10.4347L9.43341 10.4347C8.86868 10.4347 8.41088 10.8594 8.41088 11.3833C8.41088 11.9072 8.86868 12.3319 9.43341 12.3319L17.3527 12.3319L15.2938 14.5605C14.9263 14.9583 14.976 15.5572 15.4048 15.8981C15.8336 16.239 16.4791 16.1929 16.8466 15.7951ZM10.3728 5.69159C10.9376 5.69159 11.3954 6.1163 11.3954 6.64021L11.3954 8.06312C11.3954 8.58703 11.8532 9.01173 12.4179 9.01173C12.9826 9.01173 13.4404 8.58703 13.4404 8.06312L13.4404 6.64021C13.4404 5.0685 12.067 3.79437 10.3728 3.79437L7.30524 3.79437C5.61105 3.79437 4.23765 5.0685 4.23765 6.64021L4.23765 16.1263C4.23765 17.698 5.61105 18.9722 7.30524 18.9722L10.3728 18.9722C12.067 18.9722 13.4404 17.698 13.4404 16.1263L13.4404 14.7034C13.4404 14.1795 12.9826 13.7548 12.4179 13.7548C11.8532 13.7548 11.3954 14.1795 11.3954 14.7034L11.3954 16.1263C11.3954 16.6502 10.9376 17.0749 10.3728 17.0749L7.30524 17.0749C6.74051 17.0749 6.28271 16.6502 6.28271 16.1263L6.28271 6.64021C6.28271 6.1163 6.74051 5.69159 7.30524 5.69159L10.3728 5.69159Z" fill="#737791"/>
</svg>
